<?xml version="1.0" encoding="utf-8"?>
<!-- Generator: Adobe Illustrator 24.0.1, SVG Export Plug-In . SVG Version: 6.00 Build 0)  -->
<svg version="1.1" xmlns="http://www.w3.org/2000/svg" xmlns:xlink="http://www.w3.org/1999/xlink" x="0px" y="0px"
	 viewBox="0 0 180 246.3" style="enable-background:new 0 0 180 246.3;" xml:space="preserve">
<style type="text/css">
	.st0{display:none;}
	.st1{display:inline;fill:#F7F8FC;}
	.st2{display:inline;}
	.st3{fill:#F7F8FC;}
	.st4{fill:#FFFFFF;stroke:#0561FC;stroke-width:10.0091;}
	.st5{fill:#9AC7F7;}
	.st6{fill:#C5E1F9;stroke:#0561FC;stroke-width:10.0091;}
	.st7{fill:none;stroke:#0561FC;stroke-width:10.0091;}
	.st8{fill:#9AC7F7;stroke:#0561FC;stroke-width:10.0091;}
	.st9{fill:#FFFFFF;stroke:#0561FC;stroke-width:10.0091;stroke-linejoin:round;}
	.st10{fill:#C5E1F9;}
	.st11{fill:#FFFFFF;}
	.st12{fill:none;stroke:#0561FC;stroke-width:10.0091;stroke-linejoin:bevel;}
</style>
<g id="Layer_2">
</g>
<g id="Layer_3">
</g>
<g id="Layer_4">
	<g>
		<path class="st8" d="M175,246.3v-29.5c0-13-11.9-23.6-26.6-23.6h-37.9c0.1-0.6,0.1-1.2,0.1-1.8V140c0-11.1-9-20-20-20h-1.2
			c-11,0-20,9-20,20v51.4c0,0.6,0,1.2,0.1,1.8H31.6C16.9,193.2,5,203.8,5,216.8v29.5"/>
		<path class="st8" d="M118.3,202.7c0,2.8-2.2,5-5,5H66.7c-2.8,0-5-2.2-5-5v-22.5c0-2.8,2.2-5,5-5h46.7c2.8,0,5,2.2,5,5V202.7z"/>
		<path class="st4" d="M148.7,117.5c0,32.9-26.6,59.6-59.4,59.6l0,0c-32.8,0-59.4-26.7-59.4-59.6V84.8c0-32.9,26.6-59.6,59.4-59.6
			l0,0c32.8,0,59.4,26.7,59.4,59.6V117.5z"/>
		<path class="st4" d="M141.1,111.5c0-6.5,5.3-11.8,11.7-11.8h1c6.5,0,11.7,5.3,11.7,11.8v14.3c0,6.5-5.3,11.8-11.7,11.8h-1
			c-4.8,0-8.9-2.9-10.7-7"/>
		<path class="st4" d="M37.3,99.7c-6.3,0.7-16.6,5.9-16.6,12.5v15c0,6.5,10.3,11.8,16.6,12.5V99.7z"/>
		<line class="st7" x1="58.6" y1="101.6" x2="69.5" y2="101.6"/>
		<line class="st7" x1="103.6" y1="101.6" x2="114.5" y2="101.6"/>
		<path class="st4" d="M76.5,148.7c2.9,5,7.5,8.2,12.8,8.2c5.3,0,10-3.2,12.8-8.2"/>
		<path class="st6" d="M146.1,40.2h-6.9c2.3-4,3-8.2,1.6-11.8c-3.5-9-18.5-11.6-33.5-5.8c-1.7,0.7-3.3,1.4-4.8,2.2
			c0.9-3.2,1-6.4-0.2-9.3c-4.1-10.7-22-13.8-39.8-6.9c-17.6,6.8-28.6,20.9-24.9,31.5h-5.3c-6.9,0-12.5,5.6-12.5,12.5V105
			c0.2,0.5,0.4,1.1,0.6,1.6h16.8V61c0-0.6,0.1-1.3,0.1-1.9c15.7,3.3,33.3,5.2,51.8,5.2c18.6,0,36.2-1.9,51.8-5.2
			c0,0.6,0.1,1.3,0.1,1.9v45.6H158c0.2-0.5,0.4-1.1,0.6-1.6V52.8C158.6,45.9,153,40.2,146.1,40.2z"/>
		<path class="st4" d="M80.2,88.5v37.5c0,2.4,2,4.4,4.4,4.4h8c2.4,0,4.4-2,4.4-4.4v-2.2"/>
		<line class="st7" x1="79.5" y1="206" x2="79.5" y2="186.8"/>
	</g>
</g>
</svg>
